<svg width="34" height="34" viewBox="0 0 34 34" fill="none" xmlns="http://www.w3.org/2000/svg">
<g clip-path="url(#clip0)">
<path d="M30.4752 4.42782H28.3407V2.73623C28.3407 2.24913 27.9422 1.85059 27.4551 1.85059C26.968 1.85059 26.5694 2.24913 26.5694 2.73623V4.42782H17.8901V2.73623C17.8901 2.24913 17.4916 1.85059 17.0044 1.85059C16.5173 1.85059 16.1188 2.24913 16.1188 2.73623V4.42782H7.35088V2.73623C7.35088 2.24913 6.95234 1.85059 6.46523 1.85059C5.97813 1.85059 5.57958 2.24913 5.57958 2.73623V4.42782H3.53374C1.58531 4.42782 0 6.06627 0 8.01469V28.606C0 30.5633 1.57645 32.1486 3.53374 32.1486H30.4663C32.4236 32.1486 34 30.5633 34 28.6149V8.01469C34.0089 6.06627 32.4236 4.42782 30.4752 4.42782ZM32.2376 28.606C32.2376 29.5802 31.4582 30.3684 30.484 30.3773H30.4752H3.53374C2.55952 30.3773 1.7713 29.5891 1.7713 28.6149V28.606V8.01469C1.7713 7.03162 2.55952 6.19911 3.53374 6.19911H5.57958V7.4833C5.57958 7.97041 5.97813 8.36895 6.46523 8.36895C6.95234 8.36895 7.35088 7.97041 7.35088 7.4833V6.19911H16.1188V7.4833C16.1188 7.97041 16.5173 8.36895 17.0044 8.36895C17.4916 8.36895 17.8901 7.97041 17.8901 7.4833V6.19911H26.5694V7.4833C26.5694 7.97041 26.968 8.36895 27.4551 8.36895C27.9422 8.36895 28.3407 7.97041 28.3407 7.4833V6.19911H30.4752C31.4582 6.19911 32.2376 7.04048 32.2376 8.01469V28.606Z" fill="#A8CEC2"/>
<path d="M14.6758 11.9561H13.1259C12.6388 11.9561 12.2402 12.3546 12.2402 12.8417C12.2402 13.3288 12.6388 13.7273 13.1259 13.7273H14.6758C15.1629 13.7273 15.5614 13.3288 15.5614 12.8417C15.5614 12.3546 15.1629 11.9561 14.6758 11.9561Z" fill="#A8CEC2"/>
<path d="M20.8398 11.9561H19.2899C18.8028 11.9561 18.4043 12.3546 18.4043 12.8417C18.4043 13.3288 18.8028 13.7273 19.2899 13.7273H20.8398C21.3269 13.7273 21.7255 13.3288 21.7255 12.8417C21.7255 12.3546 21.3358 11.9561 20.8398 11.9561Z" fill="#A8CEC2"/>
<path d="M27.0566 11.9561H25.5067C25.0196 11.9561 24.6211 12.3546 24.6211 12.8417C24.6211 13.3288 25.0196 13.7273 25.5067 13.7273H27.0566C27.5437 13.7273 27.9423 13.3288 27.9423 12.8417C27.9423 12.3546 27.5437 11.9561 27.0566 11.9561Z" fill="#A8CEC2"/>
<path d="M14.6758 18.0674H13.1259C12.6388 18.0674 12.2402 18.4659 12.2402 18.953C12.2402 19.4401 12.6388 19.8387 13.1259 19.8387H14.6758C15.1629 19.8387 15.5614 19.4401 15.5614 18.953C15.5614 18.4659 15.1629 18.0674 14.6758 18.0674Z" fill="#A8CEC2"/>
<path d="M8.46587 18.0674H6.90713C6.42003 18.0674 6.02148 18.4659 6.02148 18.953C6.02148 19.4401 6.42003 19.8387 6.90713 19.8387H8.45701C8.94412 19.8387 9.34266 19.4401 9.34266 18.953C9.34266 18.4659 8.95298 18.0674 8.46587 18.0674Z" fill="#A8CEC2"/>
<path d="M20.8398 18.0674H19.2899C18.8028 18.0674 18.4043 18.4659 18.4043 18.953C18.4043 19.4401 18.8028 19.8387 19.2899 19.8387H20.8398C21.3269 19.8387 21.7255 19.4401 21.7255 18.953C21.7255 18.4659 21.3358 18.0674 20.8398 18.0674Z" fill="#A8CEC2"/>
<path d="M27.0566 18.0674H25.5067C25.0196 18.0674 24.6211 18.4659 24.6211 18.953C24.6211 19.4401 25.0196 19.8387 25.5067 19.8387H27.0566C27.5437 19.8387 27.9423 19.4401 27.9423 18.953C27.9423 18.4659 27.5437 18.0674 27.0566 18.0674Z" fill="#A8CEC2"/>
<path d="M14.6758 24.0898H13.1259C12.6388 24.0898 12.2402 24.4884 12.2402 24.9755C12.2402 25.4626 12.6388 25.8611 13.1259 25.8611H14.6758C15.1629 25.8611 15.5614 25.4626 15.5614 24.9755C15.5614 24.4884 15.1629 24.0898 14.6758 24.0898Z" fill="#A8CEC2"/>
<path d="M8.46587 24.0898H6.90713C6.42003 24.0898 6.02148 24.4884 6.02148 24.9755C6.02148 25.4626 6.42003 25.8611 6.90713 25.8611H8.45701C8.94412 25.8611 9.34266 25.4626 9.34266 24.9755C9.34266 24.4884 8.95298 24.0898 8.46587 24.0898Z" fill="#A8CEC2"/>
<path d="M20.8398 24.0898H19.2899C18.8028 24.0898 18.4043 24.4884 18.4043 24.9755C18.4043 25.4626 18.8028 25.8611 19.2899 25.8611H20.8398C21.3269 25.8611 21.7255 25.4626 21.7255 24.9755C21.7255 24.4884 21.3358 24.0898 20.8398 24.0898Z" fill="#A8CEC2"/>
</g>
<defs>
<clipPath id="clip0">
<rect width="34" height="34" fill="white"/>
</clipPath>
</defs>
</svg>
