<svg width="34" height="34" viewBox="0 0 34 34" fill="none" xmlns="http://www.w3.org/2000/svg">
<path d="M17 0C7.62637 0 0 7.62637 0 17C0 26.3736 7.62637 34 17 34C26.3736 34 34 26.3736 34 17C34 7.62637 26.3736 0 17 0ZM17 31.875C8.79778 31.875 2.12501 25.2022 2.12501 17C2.12501 8.79778 8.79778 2.12501 17 2.12501C25.2022 2.12501 31.875 8.79778 31.875 17C31.875 25.2022 25.2022 31.875 17 31.875Z" fill="#A8CEC2"/>
<path d="M18.0625 6.375H15.9375V17.4399L22.6238 24.1262L24.1262 22.6237L18.0625 16.56V6.375Z" fill="#A8CEC2"/>
</svg>
