<svg width="34" height="34" viewBox="0 0 34 34" fill="none" xmlns="http://www.w3.org/2000/svg">
<path d="M29.0209 4.97914C25.81 1.76827 21.5409 0 17 0C12.4591 0 8.19002 1.76827 4.97914 4.97914C1.76833 8.19002 0 12.4591 0 17C0 21.5409 1.76833 25.81 4.97914 29.0209C8.19002 32.2317 12.4591 34 17 34C21.5409 34 25.81 32.2317 29.0209 29.0209C32.2317 25.81 34 21.5409 34 17C34 12.4591 32.2317 8.19002 29.0209 4.97914ZM17 32.0078C8.72465 32.0078 1.99219 25.2753 1.99219 17C1.99219 8.72465 8.72465 1.99219 17 1.99219C25.2753 1.99219 32.0078 8.72465 32.0078 17C32.0078 25.2753 25.2753 32.0078 17 32.0078Z" fill="#A8CEC2"/>
<path d="M18.0669 16.0039H15.933C14.7173 16.0039 13.7283 15.0149 13.7283 13.7993C13.7283 12.5836 14.7174 11.5946 15.933 11.5946H20.2007C20.7509 11.5946 21.1968 11.1486 21.1968 10.5985C21.1968 10.0484 20.7509 9.60239 20.2007 9.60239H17.9961V7.39771C17.9961 6.8476 17.5501 6.40161 17 6.40161C16.4499 6.40161 16.0039 6.8476 16.0039 7.39771V9.60239H15.9331C13.6189 9.60239 11.7362 11.4851 11.7362 13.7993C11.7362 16.1134 13.619 17.9961 15.9331 17.9961H18.067C19.2826 17.9961 20.2716 18.9851 20.2716 20.2008C20.2716 21.4164 19.2826 22.4055 18.067 22.4055H13.7992C13.2491 22.4055 12.8032 22.8514 12.8032 23.4015C12.8032 23.9517 13.2491 24.3976 13.7992 24.3976H16.0039V26.6024C16.0039 27.1525 16.4499 27.5985 17 27.5985C17.5501 27.5985 17.9961 27.1525 17.9961 26.6024V24.3976H18.0669C20.381 24.3976 22.2637 22.5149 22.2637 20.2008C22.2637 17.8866 20.381 16.0039 18.0669 16.0039Z" fill="#A8CEC2"/>
</svg>
