<svg width="56" height="56" viewBox="0 0 56 56" fill="#A8CEC2" xmlns="http://www.w3.org/2000/svg">
<path d="M55.0661 43.9993H54.0291C56.6072 41.4904 56.6633 37.3666 54.1544 34.7885C53.7564 34.3794 53.3063 34.0246 52.8158 33.7328C54.7875 32.5554 55.9961 30.4293 55.9994 28.1328C55.9947 24.5266 53.0724 21.6042 49.4661 21.5996H41.0662V15.0663C41.066 14.5509 40.648 14.1331 40.1325 14.1333C40.0852 14.1333 40.0378 14.137 39.991 14.1442L28.933 15.8447V14.973C31.1043 14.5265 32.6635 12.6165 32.6663 10.3997C32.6663 6.32668 28.8238 2.43659 28.6595 2.27326C28.2951 1.90891 27.7043 1.90891 27.3398 2.27326C27.1756 2.43659 23.3331 6.32668 23.3331 10.3997C23.3359 12.6165 24.8951 14.5265 27.0664 14.973V16.1331L15.7246 17.8784C15.2697 17.9484 14.9338 18.3394 14.9332 18.7996V29.1978C14.2515 28.4625 13.4653 27.8316 12.5999 27.3255C12.3111 27.1588 11.9553 27.1588 11.6665 27.3255C8.91043 28.927 7.04985 31.7131 6.62659 34.8724C5.98155 34.7401 5.32507 34.671 4.66662 34.6661C4.25467 34.668 3.84331 34.6947 3.43463 34.7464C3.10353 34.7863 2.81899 34.9998 2.68797 35.3064C0.786091 39.7676 2.26832 44.9512 6.24113 47.7326H0V49.5993H2.22318L3.83129 52.8164C3.98937 53.1328 4.31289 53.3327 4.66662 53.3326H40.1329C40.6483 53.3326 41.0662 52.9147 41.0662 52.3992V49.5993H47.0227L48.6308 52.8164C48.7889 53.1328 49.1124 53.3327 49.4661 53.3326H53.1994C53.7148 53.3326 54.1327 52.9147 54.1327 52.3992V49.5993H55.0661C55.5815 49.5993 55.9994 49.1814 55.9994 48.6659V44.9327C55.9994 44.4172 55.5815 43.9993 55.0661 43.9993ZM54.1327 39.3327C54.1297 41.9087 52.0421 43.9963 49.4661 43.9993H32.6663C30.089 43.9993 27.9997 41.91 27.9997 39.3327C27.9997 36.7555 30.089 34.6661 32.6663 34.6661H44.7995C46.3459 34.6661 47.5995 35.9197 47.5995 37.4661C47.5995 39.0125 46.3459 40.266 44.7995 40.266H35.4663C34.9508 40.266 34.533 39.8481 34.533 39.3327C34.533 38.8173 34.9508 38.3994 35.4663 38.3994H41.9995V36.5327H35.4663C33.9199 36.5327 32.6663 37.7863 32.6663 39.3327C32.6663 40.8791 33.9199 42.1327 35.4663 42.1327H44.7995C47.3755 42.1297 49.4631 40.042 49.4661 37.4661C49.4627 36.4529 49.1262 35.4691 48.5085 34.6661H49.4661C52.0421 34.6691 54.1297 36.7567 54.1327 39.3327ZM46.6661 23.4662C48.2125 23.4662 49.4661 24.7198 49.4661 26.2662C49.4661 27.8126 48.2125 29.0662 46.6661 29.0662H37.3329C36.8175 29.0662 36.3996 28.6483 36.3996 28.1328C36.3996 27.6174 36.8175 27.1995 37.3329 27.1995H43.8662V25.3329H37.3329C35.7865 25.3329 34.533 26.5864 34.533 28.1328C34.533 29.6792 35.7865 30.9328 37.3329 30.9328H46.6661C49.2421 30.9298 51.3297 28.8422 51.3328 26.2662C51.3318 25.3035 51.0304 24.3651 50.4704 23.582C52.9838 24.1522 54.5591 26.652 53.9889 29.1654C53.509 31.2807 51.635 32.7864 49.4661 32.7995H44.7995H36.3996C33.8223 32.7995 31.733 30.7101 31.733 28.1328C31.733 25.5556 33.8223 23.4662 36.3996 23.4662H46.6661ZM25.1997 10.3997C25.1997 8.0132 26.9964 5.53149 27.9997 4.3331C29.0039 5.53056 30.7997 8.0076 30.7997 10.3997C30.7948 11.582 30.0478 12.6338 28.933 13.0279V11.333H27.0664V13.0279C25.9516 12.6338 25.2046 11.582 25.1997 10.3997ZM12.1332 29.2323C14.2184 30.6357 15.5685 32.8965 15.8152 35.3978C14.4231 35.9537 13.1694 36.8071 12.1416 37.8982C11.1063 36.8113 9.84667 35.9632 8.45031 35.4128C8.69262 32.9057 10.0436 30.6386 12.1332 29.2323ZM16.815 37.0076C17.7098 36.6933 18.6513 36.5327 19.5998 36.5327C19.7463 36.5327 19.8994 36.5383 20.059 36.5486C21.5966 40.9255 19.2949 45.7201 14.918 47.2578C14.0232 47.5721 13.0816 47.7326 12.1332 47.7326C11.9867 47.7326 11.8336 47.727 11.674 47.7168C10.1364 43.3398 12.438 38.5452 16.815 37.0076ZM3.73329 39.3327C3.73213 38.3845 3.89242 37.443 4.20742 36.5486C4.36702 36.5383 4.52008 36.5327 4.66662 36.5327C7.08345 36.5255 9.38375 37.5704 10.9684 39.3952C9.43788 41.7477 8.95442 44.6306 9.63376 47.3537C6.12341 46.2596 3.73259 43.0097 3.73329 39.3327ZM19.023 51.4659H5.24341L4.31009 49.5993H19.9563L19.023 51.4659ZM27.9997 51.4659H21.1099L22.0432 49.5993H24.2664V47.7326H18.0178C21.995 44.9551 23.481 39.7699 21.5784 35.3073C21.4474 35.0007 21.1629 34.7872 20.8318 34.7473C19.7698 34.6108 18.6925 34.6486 17.6426 34.8593C17.497 33.8212 17.1926 32.8117 16.7401 31.8661H16.7998V19.6004L39.1996 16.1546V21.5996H36.3996C32.796 21.5948 29.8709 24.5122 29.8661 28.1158C29.8638 29.9048 30.596 31.6162 31.8916 32.8498C28.3139 33.2719 25.7559 36.5145 26.178 40.0923C26.3531 41.5768 27.0328 42.9561 28.1033 43.9993H27.0664C26.5509 43.9993 26.133 44.4172 26.133 44.9327V48.6659C26.133 49.1814 26.5509 49.5993 27.0664 49.5993H27.9997V51.4659ZM32.0895 51.4659H29.8663V49.5993H33.0228L32.0895 51.4659ZM39.1996 51.4659H34.1764L35.1097 49.5993H39.1996V51.4659ZM52.2661 51.4659H50.0429L49.1096 49.5993H52.2661V51.4659ZM54.1327 47.7326H27.9997V45.866H54.1327V47.7326Z" fill="#A8CEC2"/>
</svg>
