<svg width="56" height="56" viewBox="0 0 56 56" fill="none" xmlns="http://www.w3.org/2000/svg">
<path d="M54.0859 4H1.91406C0.858703 4 0 4.8587 0 5.91406V12.651C0 13.7116 1.64062 13.7116 1.64062 12.651V5.91406C1.64062 5.76334 1.76323 5.64062 1.91406 5.64062H54.0859C54.2368 5.64062 54.3594 5.76334 54.3594 5.91406V45.9168C54.3594 46.0675 54.2368 46.1902 54.0859 46.1902H43.5737V44.4833H51.8243C52.2774 44.4833 52.6446 44.116 52.6446 43.663V35.0728C52.6446 34.0122 51.004 34.0122 51.004 35.0728V42.8427H43.5737V39.203C43.6004 39.2053 43.6273 39.2076 43.6525 39.2099C44.3335 39.2697 45.1805 39.3442 45.7673 38.7563C46.3535 38.1691 46.2793 37.3212 46.2197 36.6399C46.1555 35.9087 46.2246 35.7086 46.7866 35.2414C48.2335 34.0383 48.2604 32.7501 46.7866 31.5249C46.2246 31.0574 46.1558 30.8575 46.2197 30.1262C46.3802 28.2912 45.5232 27.3919 43.6525 27.5563C42.9225 27.6204 42.7244 27.5511 42.2589 26.989C41.0576 25.5387 39.7685 25.5119 38.545 26.989C38.0795 27.551 37.8815 27.6206 37.1514 27.5563C35.3151 27.395 34.4203 28.2569 34.5842 30.1262C34.648 30.8576 34.5792 31.0574 34.0173 31.5249C32.5703 32.7279 32.5435 34.0163 34.0173 35.2414C34.5792 35.7089 34.648 35.9088 34.5842 36.6401C34.4119 38.6055 35.3505 39.3654 37.2299 39.2031V42.8429H4.99614V8.98805H51.004V30.6978C51.004 31.7584 52.6446 31.7584 52.6446 30.6978V8.16773C52.6446 7.7147 52.2774 7.34742 51.8243 7.34742H4.17583C3.72269 7.34742 3.35552 7.7147 3.35552 8.16773V43.663C3.35552 44.116 3.72269 44.4833 4.17583 44.4833H37.2299V46.1902H1.91406C1.76323 46.1902 1.64062 46.0675 1.64062 45.9168V16.8072C1.64062 15.7465 0 15.7465 0 16.8072V45.9168C0 46.9721 0.858703 47.8308 1.91406 47.8308H37.2299V51.5441C37.3467 52.2183 37.7356 52.4662 38.3962 52.2879L40.4018 51.355L42.4074 52.2879C42.9037 52.5186 43.5737 52.1539 43.5737 51.5441V47.8308H54.0859C55.1413 47.8308 56 46.9721 56 45.9168V5.91406C56 4.85859 55.1413 4 54.0859 4ZM37.0076 37.5754C36.1864 37.6477 36.1466 37.6037 36.2183 36.783C36.3286 35.5233 36.0388 34.7883 35.066 33.9796C34.4003 33.426 34.4004 33.3397 35.066 32.7862C36.0388 31.9775 36.3287 31.2425 36.2183 29.9829C36.1466 29.162 36.1864 29.1185 37.0076 29.1904C38.2674 29.3014 39.0014 29.0095 39.8082 28.0353C40.3596 27.3698 40.4439 27.3698 40.9953 28.0353C41.8024 29.0095 42.5362 29.3009 43.7959 29.1904C44.6172 29.1181 44.6569 29.162 44.5852 29.9828C44.4749 31.2425 44.7647 31.9774 45.7376 32.7861C46.4031 33.3396 46.4034 33.4261 45.7375 33.9796C44.7646 34.7884 44.4747 35.5231 44.5851 36.7827C44.6572 37.6035 44.6171 37.6476 43.796 37.5754C43.2808 37.5301 42.6963 37.4787 42.1818 37.6924C41.6838 37.8992 41.3337 38.3218 40.9952 38.7305C40.8357 38.923 40.5447 39.2744 40.4016 39.3373C40.2586 39.2744 39.9676 38.923 39.8081 38.7305C39.4696 38.3219 39.1196 37.8992 38.6215 37.6924C38.0906 37.5305 37.5526 37.4915 37.0076 37.5754ZM40.7478 49.7066C40.5284 49.6046 40.2753 49.6046 40.0559 49.7066L38.8706 50.258V40.1573C39.2598 40.5853 39.7401 40.9826 40.4018 40.9826C41.0635 40.9826 41.5438 40.5854 41.9331 40.1574V50.258L40.7478 49.7066Z" fill="#A8CEC2"/>
<path d="M10.6373 15.8545H38.9159C39.9765 15.8545 39.9765 14.2139 38.9159 14.2139H10.6373C9.57662 14.2139 9.57662 15.8545 10.6373 15.8545Z" fill="#A8CEC2"/>
<path d="M46.1813 20.0234C46.1813 19.5704 45.8141 19.2031 45.361 19.2031H10.6373C9.57664 19.2031 9.57664 20.8437 10.6373 20.8437H45.3611C45.8141 20.8437 46.1813 20.4765 46.1813 20.0234Z" fill="#A8CEC2"/>
<path d="M31.186 25.0127C31.186 24.5597 30.8188 24.1924 30.3657 24.1924H10.6373C9.57664 24.1924 9.57664 25.833 10.6373 25.833H30.3657C30.8187 25.833 31.186 25.4657 31.186 25.0127Z" fill="#A8CEC2"/>
<path d="M20.4145 36.4471C19.9672 36.4479 19.5199 36.4484 19.0726 36.4487C18.2122 36.4494 17.7385 36.22 17.5627 35.3076C17.4023 34.4747 16.2009 34.5808 15.9807 35.3076C15.8833 35.6295 15.3911 36.551 14.9611 36.4757C14.7333 36.4357 14.6338 36.0843 14.5496 35.9023C14.3856 35.548 14.2662 35.1726 14.1639 34.7963C13.7321 33.2067 13.6459 31.5469 13.3757 29.9273C13.2191 28.9881 11.7875 29.2536 11.7644 30.1454C11.6909 32.9859 11.2265 35.7876 10.2152 38.4501C9.83997 39.4381 11.4254 39.8653 11.7972 38.8863C12.1872 37.8597 12.4967 36.8085 12.7369 35.7416C12.8657 36.1304 13.0194 36.5116 13.207 36.8825C13.686 37.8293 14.6631 38.3894 15.7085 37.9683C16.0816 37.818 16.4219 37.5553 16.7117 37.2356C17.4878 38.1306 18.6425 38.09 19.7197 38.0887C21.3436 38.0866 22.9675 38.0828 24.5915 38.0783C25.6471 38.0754 25.649 36.4347 24.5915 36.4377C23.1991 36.4416 21.8068 36.4448 20.4145 36.4471Z" fill="#A8CEC2"/>
<path d="M40.4013 36.5868C42.168 36.5868 43.6054 35.1495 43.6054 33.3827C43.6054 31.616 42.168 30.1787 40.4013 30.1787C38.6347 30.1787 37.1973 31.6161 37.1973 33.3827C37.1973 35.1494 38.6346 36.5868 40.4013 36.5868ZM40.4013 31.8193C41.2634 31.8193 41.9648 32.5208 41.9648 33.3827C41.9648 34.2447 41.2634 34.9461 40.4013 34.9461C39.5392 34.9461 38.8379 34.2448 38.8379 33.3827C38.8379 32.5206 39.5392 31.8193 40.4013 31.8193Z" fill="#A8CEC2"/>
</svg>
