<svg width="57" height="56" viewBox="0 0 57 56" fill="none" xmlns="http://www.w3.org/2000/svg">
<path d="M51.9844 52.2672V32.7597L52.3686 30.8387C53.3413 25.9688 53.8376 21.0159 53.8503 16.0499L56.7448 8.81446C57.0399 8.06853 57.0711 7.24411 56.8332 6.47802C56.5952 5.71193 56.1024 5.05026 55.4365 4.60281L55.3701 4.55859C53.2635 3.14898 50.7858 2.39648 48.2511 2.39648C45.7163 2.39648 43.2386 3.14898 41.132 4.55859L41.0657 4.60281C40.3999 5.05023 39.907 5.7119 39.669 6.478C39.4311 7.2441 39.4623 8.06854 39.7575 8.81446L42.6518 16.05C42.6646 21.016 43.1608 25.9689 44.1336 30.8387L44.5178 32.7598V52.2672C44.5178 53.2574 44.9111 54.2069 45.6113 54.9071C46.3115 55.6072 47.2612 56.0005 48.2514 56.0005C49.2416 56.0005 50.1912 55.6072 50.8914 54.9071C51.5916 54.2069 51.9849 53.2574 51.9849 52.2672H51.9844ZM44.2157 14.9341L41.4903 8.12076C41.3525 7.77264 41.338 7.38787 41.449 7.03033C41.5601 6.67278 41.7901 6.36397 42.1009 6.15517L42.1671 6.11095C43.9673 4.90641 46.0847 4.2634 48.2507 4.2634C50.4168 4.2634 52.5341 4.90641 54.3343 6.11095L54.4007 6.15517C54.7115 6.36395 54.9415 6.67274 55.0527 7.03028C55.1638 7.38781 55.1493 7.7726 55.0116 8.12076L52.2858 14.9341H50.3227L51.0328 11.3838C51.0576 11.2633 51.0583 11.1391 51.035 11.0183C51.0116 10.8976 50.9646 10.7826 50.8966 10.6801C50.8287 10.5775 50.7411 10.4894 50.639 10.4208C50.5369 10.3522 50.4222 10.3045 50.3016 10.2804C50.181 10.2562 50.0568 10.2562 49.9361 10.2802C49.8155 10.3043 49.7008 10.3519 49.5986 10.4204C49.4964 10.489 49.4088 10.577 49.3408 10.6795C49.2728 10.782 49.2257 10.8969 49.2023 11.0177L48.4195 14.9341H48.0831L47.2994 11.0177C47.276 10.8969 47.2289 10.782 47.1609 10.6795C47.0928 10.577 47.0052 10.489 46.9031 10.4204C46.8009 10.3519 46.6862 10.3043 46.5656 10.2802C46.4449 10.2562 46.3207 10.2562 46.2001 10.2804C46.0794 10.3045 45.9648 10.3522 45.8626 10.4208C45.7605 10.4894 45.673 10.5775 45.605 10.6801C45.5371 10.7826 45.4901 10.8976 45.4667 11.0183C45.4434 11.1391 45.4441 11.2633 45.4689 11.3838L46.1793 14.9341H44.2157ZM50.1176 52.2672C50.1176 52.7623 49.9209 53.2371 49.5708 53.5872C49.2207 53.9372 48.7459 54.1339 48.2508 54.1339C47.7557 54.1339 47.2809 53.9372 46.9308 53.5872C46.5807 53.2371 46.384 52.7623 46.384 52.2672V33.6006H50.1176V52.2672ZM50.2863 31.734H46.2157L45.9635 30.4726C45.0637 25.9693 44.5813 21.3926 44.5226 16.8007H51.9781C51.9547 18.6683 51.8603 20.535 51.6948 22.4007H49.1842C48.9366 22.4007 48.6992 22.499 48.5242 22.6741C48.3491 22.8491 48.2508 23.0865 48.2508 23.334C48.2508 23.5816 48.3491 23.819 48.5242 23.994C48.6992 24.169 48.9366 24.2674 49.1842 24.2674H51.5072C51.2709 26.3498 50.9479 28.4183 50.5379 30.4726L50.2863 31.734Z" fill="#A8CEC2"/>
<path d="M38.2553 28.2367L36.4244 27.6268C36.1087 27.5216 35.7726 27.4929 35.4436 27.5431C35.1147 27.5932 34.8024 27.7208 34.5324 27.9154C34.2625 28.1099 34.0426 28.3658 33.891 28.6619C33.7393 28.9581 33.6602 29.286 33.6602 29.6188V39.2001C33.4126 39.2001 33.1752 39.2984 33.0002 39.4735C32.8251 39.6485 32.7268 39.8859 32.7268 40.1334V55.0667C32.7268 55.3142 32.8251 55.5516 33.0002 55.7266C33.1752 55.9017 33.4126 56 33.6602 56H41.1273C41.3749 56 41.6123 55.9017 41.7873 55.7266C41.9624 55.5516 42.0607 55.3142 42.0607 55.0667V40.1334C42.0607 39.8859 41.9624 39.6485 41.7873 39.4735C41.6123 39.2984 41.3749 39.2001 41.1273 39.2001V32.2214C41.1281 31.3396 40.851 30.4801 40.3355 29.7648C39.8199 29.0495 39.092 28.5148 38.2553 28.2367ZM35.527 29.6188C35.5269 29.5818 35.5357 29.5453 35.5525 29.5123C35.5693 29.4794 35.5938 29.4509 35.6238 29.4292C35.6538 29.4076 35.6885 29.3934 35.7251 29.3878C35.7617 29.3822 35.7991 29.3854 35.8342 29.3971L37.6649 30.0073C38.1298 30.1618 38.5343 30.4589 38.8207 30.8563C39.1072 31.2538 39.2611 31.7314 39.2605 32.2214V39.2001H35.527V29.6188ZM40.1939 54.1334H34.5936V44.8001H40.1939V54.1334ZM40.1939 42.9334H34.5936V41.0667H40.1939V42.9334Z" fill="#A8CEC2"/>
<path d="M0.991394 47.5999V48.0665C0.993772 50.1698 1.83042 52.1863 3.31779 53.6736C4.80516 55.1609 6.82179 55.9975 8.92524 55.9998H22.9262C25.0296 55.9975 27.0462 55.1609 28.5336 53.6736C30.021 52.1863 30.8576 50.1698 30.86 48.0665V47.5999C30.86 47.3523 30.7617 47.1149 30.5866 46.9399C30.4116 46.7649 30.1742 46.6665 29.9266 46.6665H27.7331C28.6776 44.6749 29.1028 42.4767 28.9692 40.2766C28.8357 38.0765 28.1477 35.9459 26.9693 34.0831C25.7908 32.2203 24.1603 30.6859 22.2294 29.6226C20.2985 28.5593 18.13 28.0017 15.9257 28.0017C13.7214 28.0017 11.5529 28.5593 9.62196 29.6226C7.69107 30.6859 6.06055 32.2203 4.88215 34.0831C3.70375 35.9459 3.01575 38.0765 2.88219 40.2766C2.74863 42.4767 3.17385 44.6749 4.11826 46.6665H1.92479C1.67724 46.6665 1.43982 46.7649 1.26478 46.9399C1.08973 47.1149 0.991394 47.3523 0.991394 47.5999ZM15.9257 29.8666C17.8918 29.8668 19.8232 30.3844 21.5258 31.3674C23.2285 32.3505 24.6424 33.7643 25.6255 35.4668C26.6086 37.1693 27.1262 39.1006 27.1264 41.0665C27.1266 43.0325 26.6093 44.9638 25.6266 46.6665H23.396C24.4361 45.2796 25.0694 43.6305 25.2251 41.904C25.3807 40.1775 25.0524 38.4417 24.277 36.8912C23.5017 35.3407 22.3098 34.0367 20.8351 33.1254C19.3603 32.214 17.6609 31.7313 15.9273 31.7313C14.1936 31.7313 12.4942 32.214 11.0195 33.1254C9.54471 34.0367 8.35289 35.3407 7.57752 36.8912C6.80216 38.4417 6.47389 40.1775 6.6295 41.904C6.78511 43.6305 7.41844 45.2796 8.45855 46.6665H6.22482C5.24206 44.9638 4.72478 43.0325 4.72497 41.0665C4.72517 39.1006 5.24282 37.1693 6.22592 35.4668C7.20902 33.7643 8.62293 32.3505 10.3256 31.3674C12.0282 30.3844 13.9596 29.8668 15.9257 29.8666ZM17.2375 33.7176C18.0091 33.8546 18.7542 34.113 19.4448 34.4833L10.362 46.0426C9.91441 45.5424 9.53633 44.9842 9.23793 44.383L17.2375 33.7176ZM8.54582 42.1946C8.39423 41.2132 8.44029 40.2114 8.6813 39.248C8.92231 38.2846 9.3534 37.3791 9.94926 36.5846C10.5451 35.7901 11.2937 35.1227 12.1511 34.6216C13.0086 34.1204 13.9575 33.7957 14.9421 33.6663L8.54582 42.1946ZM20.9686 35.5655C21.7331 36.2668 22.3437 37.119 22.762 38.0682C22.762 38.0682 16.055 46.6142 16.0279 46.6665H12.2458L20.9686 35.5655ZM13.1255 48.5332H18.7259C18.9734 48.5332 19.2108 48.6315 19.3859 48.8066C19.5609 48.9816 19.6593 49.219 19.6593 49.4665C19.6593 49.7141 19.5609 49.9515 19.3859 50.1265C19.2108 50.3015 18.9734 50.3999 18.7259 50.3999H13.1255C12.878 50.3999 12.6406 50.3015 12.4655 50.1265C12.2905 49.9515 12.1921 49.7141 12.1921 49.4665C12.1921 49.219 12.2905 48.9816 12.4655 48.8066C12.6406 48.6315 12.878 48.5332 13.1255 48.5332ZM18.3796 46.6665L23.3565 40.3327C23.3798 40.5743 23.3929 40.8189 23.3929 41.0666C23.3948 42.1264 23.17 43.1745 22.7336 44.1403C22.2972 45.1062 21.6592 45.9675 20.8624 46.6665H18.3796ZM10.4859 48.5332C10.3363 48.9555 10.2904 49.4075 10.3518 49.8513C10.4132 50.295 10.5803 50.7175 10.8389 51.0833C11.0975 51.4491 11.4402 51.7475 11.8381 51.9534C12.236 52.1593 12.6775 52.2667 13.1255 52.2665H18.7259C19.1738 52.2667 19.6153 52.1593 20.0131 51.9535C20.411 51.7477 20.7536 51.4494 21.0123 51.0837C21.2709 50.718 21.438 50.2956 21.4995 49.8519C21.561 49.4082 21.5152 48.9563 21.3658 48.534L21.3696 48.5332H28.9755C28.8561 50.0562 28.1672 51.4783 27.0461 52.5162C25.925 53.554 24.454 54.1314 22.9262 54.1332H8.92524C7.39745 54.1314 5.92643 53.554 4.80531 52.5162C3.6842 51.4783 2.99531 50.0562 2.87592 48.5332H10.4859Z" fill="#A8CEC2"/>
<path d="M27.542 13.8434L29.0379 14.8405C29.7573 15.3207 30.3393 15.98 30.7263 16.7535L30.9586 17.2181C31.0361 17.3731 31.1553 17.5034 31.3027 17.5945C31.4502 17.6857 31.6201 17.7339 31.7934 17.7339C31.9667 17.7339 32.1366 17.6857 32.2841 17.5945C32.4315 17.5034 32.5507 17.3731 32.6282 17.2181L32.8605 16.7535C33.2475 15.9799 33.8294 15.3204 34.5489 14.8402L36.0448 13.843C36.1902 13.7461 36.3054 13.6103 36.3775 13.4511C36.4495 13.292 36.4754 13.1157 36.4522 12.9426C36.429 12.7694 36.3576 12.6062 36.2462 12.4716C36.1349 12.3369 35.9879 12.2363 35.8222 12.181C35.0911 11.9354 34.4269 11.5238 33.8815 10.9785C33.3362 10.4332 32.9246 9.76904 32.679 9.03803C32.617 8.85215 32.4982 8.69046 32.3392 8.57589C32.1803 8.46131 31.9893 8.39966 31.7934 8.39966C31.5975 8.39966 31.4065 8.46131 31.2476 8.57589C31.0886 8.69046 30.9698 8.85215 30.9078 9.03803C30.6622 9.76904 30.2506 10.4332 29.7053 10.9785C29.1599 11.5238 28.4957 11.9354 27.7646 12.181C27.5989 12.2363 27.4519 12.3369 27.3406 12.4716C27.2292 12.6062 27.1578 12.7694 27.1346 12.9426C27.1114 13.1157 27.1373 13.292 27.2093 13.4511C27.2814 13.6103 27.3966 13.7461 27.542 13.843V13.8434ZM31.7934 11.383C32.2954 12.0981 32.9285 12.7113 33.6591 13.1903L33.5134 13.2875C32.8484 13.7311 32.2663 14.2877 31.7934 14.9321C31.3206 14.2875 30.7384 13.7308 30.0734 13.2871L29.9277 13.1899C30.6583 12.7111 31.2914 12.0979 31.7934 11.383Z" fill="#A8CEC2"/>
<path d="M25.5548 17.7811C24.8238 17.5355 24.1595 17.1239 23.6142 16.5786C23.0689 16.0333 22.6572 15.3691 22.4116 14.6381C22.3497 14.4522 22.2308 14.2906 22.0719 14.176C21.913 14.0614 21.722 13.9998 21.5261 13.9998C21.3301 13.9998 21.1392 14.0614 20.9802 14.176C20.8213 14.2906 20.7024 14.4522 20.6405 14.6381C20.3949 15.3691 19.9833 16.0333 19.4379 16.5786C18.8926 17.1239 18.2284 17.5355 17.4973 17.7811C17.3315 17.8364 17.1846 17.937 17.0732 18.0717C16.9618 18.2063 16.8905 18.3695 16.8673 18.5427C16.8441 18.7158 16.87 18.8921 16.942 19.0512C17.014 19.2104 17.1293 19.3462 17.2747 19.4431L18.7706 20.4403C19.49 20.9204 20.0719 21.5798 20.459 22.3533L20.6913 22.8178C20.7688 22.9728 20.888 23.1032 21.0354 23.1943C21.1828 23.2854 21.3527 23.3337 21.5261 23.3337C21.6994 23.3337 21.8693 23.2854 22.0167 23.1943C22.1642 23.1032 22.2833 22.9728 22.3609 22.8178L22.5932 22.3533C22.9802 21.5796 23.5621 20.9202 24.2816 20.4399L25.7774 19.4428C25.9228 19.3459 26.0381 19.2101 26.1101 19.0509C26.1821 18.8917 26.208 18.7155 26.1848 18.5423C26.1616 18.3691 26.0903 18.2059 25.9789 18.0713C25.8675 17.9367 25.7206 17.836 25.5548 17.7808V17.7811ZM23.2461 18.8872C22.5811 19.3308 21.999 19.8874 21.5261 20.5319C21.0532 19.8873 20.4711 19.3305 19.8061 18.8869L19.6603 18.7897C20.391 18.3108 21.0241 17.6977 21.5261 16.9828C22.028 17.6978 22.6611 18.3111 23.3918 18.79L23.2461 18.8872Z" fill="#A8CEC2"/>
<path d="M28.0151 6.44018L29.511 5.44303C29.6563 5.34609 29.7715 5.21032 29.8434 5.05117C29.9154 4.89202 29.9412 4.71587 29.9181 4.54276C29.8949 4.36965 29.8236 4.20652 29.7122 4.07192C29.6009 3.93732 29.4541 3.83665 29.2884 3.78136C28.5573 3.53575 27.8931 3.12416 27.3478 2.57887C26.8024 2.03357 26.3908 1.36938 26.1452 0.638371C26.0833 0.452489 25.9644 0.290806 25.8055 0.176231C25.6466 0.0616559 25.4556 0 25.2596 0C25.0637 0 24.8727 0.0616559 24.7138 0.176231C24.5549 0.290806 24.436 0.452489 24.3741 0.638371C24.1285 1.36938 23.7168 2.03357 23.1715 2.57887C22.6262 3.12416 21.9619 3.53575 21.2309 3.78136C21.0651 3.8366 20.9182 3.93727 20.8068 4.0719C20.6954 4.20654 20.6241 4.36973 20.6009 4.5429C20.5777 4.71608 20.6036 4.8923 20.6756 5.05149C20.7476 5.21068 20.8629 5.34646 21.0083 5.44338L22.5041 6.44018C23.2236 6.92043 23.8056 7.57988 24.1925 8.3535L24.4248 8.81807C24.5024 8.97307 24.6215 9.10343 24.769 9.19454C24.9164 9.28564 25.0863 9.3339 25.2596 9.3339C25.433 9.3339 25.6029 9.28564 25.7503 9.19454C25.8978 9.10343 26.0169 8.97307 26.0945 8.81807L26.3267 8.3535C26.7137 7.57988 27.2957 6.92043 28.0151 6.44018ZM25.2596 6.53211C24.7868 5.88752 24.2047 5.33077 23.5396 4.88712L23.3939 4.78994C24.1245 4.31108 24.7577 3.69793 25.2596 2.98301C25.7616 3.69805 26.3947 4.31133 27.1254 4.79029L26.9797 4.88747C26.3147 5.33105 25.7325 5.88767 25.2596 6.53211Z" fill="#A8CEC2"/>
</svg>
