<svg width="56" height="56" viewBox="0 0 56 56" fill="none" xmlns="http://www.w3.org/2000/svg">
<path d="M23.5694 32.33C23.1423 31.903 22.45 31.903 22.0228 32.33C20.8813 33.4717 19.0243 33.4714 17.8828 32.33C17.4556 31.903 16.7633 31.903 16.336 32.33C15.9088 32.7571 15.9088 33.4497 16.336 33.8769C17.3331 34.874 18.643 35.3726 19.9528 35.3726C21.2625 35.3726 22.5723 34.874 23.5694 33.8769C23.9967 33.4498 23.9967 32.7572 23.5694 32.33Z" fill="#A8CEC2"/>
<path d="M40.2687 32.33C39.8416 31.903 39.1492 31.903 38.722 32.33C37.5807 33.4713 35.7236 33.4716 34.5821 32.33C34.1548 31.903 33.4625 31.903 33.0352 32.33C32.6081 32.7571 32.6081 33.4497 33.0352 33.8769C34.0323 34.874 35.3422 35.3726 36.6519 35.3726C37.9617 35.3726 39.2715 34.874 40.2687 33.8769C40.6959 33.4498 40.6959 32.7572 40.2687 32.33Z" fill="#A8CEC2"/>
<path d="M51.6007 31.3541C51.5963 28.9113 49.7287 26.8958 47.3479 26.6547V24.9374C47.3479 18.5485 44.1832 12.885 39.3394 9.43159C38.5028 4.02061 33.8494 0 28.3168 0C22.7843 0 18.1309 4.02061 17.294 9.43159C12.4502 12.885 9.28563 18.5485 9.28563 24.9374V26.6525C6.89164 26.8807 5.00952 28.9018 5.00504 31.354L5.00001 34.1244C4.99771 35.39 5.48891 36.5804 6.38305 37.4762C7.2773 38.3719 8.46674 38.8653 9.73232 38.8653H10.2622C12.6648 47.1664 19.3111 53.7907 28.0395 55.9673C28.1265 55.989 28.2153 55.9998 28.3042 55.9998C28.3928 55.9998 28.4814 55.9889 28.5679 55.9675L28.5862 55.9629C30.5874 55.4645 32.5189 54.7191 34.3268 53.7471C34.8588 53.4612 35.0583 52.7979 34.7722 52.2658C34.4863 51.7338 33.8234 51.5345 33.2909 51.8205C31.7176 52.6663 30.0411 53.324 28.3047 53.7773C18.3807 51.1767 11.473 42.2453 11.473 31.9625V30.5663L11.9451 30.4594C18.172 29.0501 24.169 26.5056 29.5331 23.0213C33.2202 27.8258 38.9366 30.6644 45.0346 30.6644H45.1604V31.9563C45.1604 35.6673 44.2349 39.3529 42.4838 42.615C42.1981 43.1472 42.3979 43.8103 42.9301 44.0959C43.0947 44.1844 43.2718 44.2262 43.4465 44.2262C43.8364 44.2262 44.2139 44.0171 44.4111 43.6495C45.228 42.1277 45.8793 40.5214 46.3603 38.8654H46.8734C48.139 38.8654 49.3284 38.372 50.2227 37.4763C51.1168 36.5807 51.6079 35.3902 51.6057 34.1244L51.6007 31.3541ZM9.73232 36.6778C9.05168 36.6778 8.41217 36.4124 7.93125 35.9309C7.45044 35.4492 7.18619 34.809 7.1875 34.1285L7.19253 31.3581C7.19483 30.1116 8.09946 29.0727 9.28563 28.8589V31.9625C9.28563 33.5697 9.43963 35.1466 9.73483 36.6778H9.73232ZM28.3168 2.18749C32.0736 2.18749 35.3248 4.49355 36.6499 7.83034C34.1317 6.59879 31.3038 5.90623 28.3168 5.90623C25.3298 5.90623 22.5018 6.59879 19.9837 7.83045C21.3089 4.49355 24.56 2.18749 28.3168 2.18749ZM45.1605 27.9999V28.4768H45.0347C39.6621 28.4768 34.6223 25.9965 31.3456 21.791C32.1028 21.2541 32.8464 20.6987 33.5738 20.1236C34.0476 19.7489 34.128 19.061 33.7535 18.5872C33.3788 18.1135 32.6909 18.0331 32.2171 18.4075C26.1677 23.1906 18.9948 26.6193 11.4732 28.3233V27.9999V24.9374C11.4731 15.6498 19.0292 8.09372 28.3168 8.09372C37.6045 8.09372 45.1605 15.6498 45.1605 24.9374V27.9999ZM48.6746 35.9307C48.1975 36.4086 47.5642 36.6732 46.8896 36.6772C47.1917 35.1248 47.348 33.5427 47.348 31.9561V28.8637C48.5205 29.0887 49.411 30.1212 49.4133 31.358L49.4183 34.1283C49.4197 34.809 49.1555 35.4491 48.6746 35.9307Z" fill="#A8CEC2"/>
<path d="M36.6608 16.0301C36.2583 15.5797 35.5668 15.5406 35.1164 15.9432L35.1013 15.9567C34.6509 16.3593 34.612 17.0507 35.0145 17.5011C35.2306 17.7429 35.5299 17.866 35.8305 17.866C36.0899 17.866 36.3503 17.7743 36.5589 17.5879L36.5739 17.5744C37.0243 17.1718 37.0633 16.4805 36.6608 16.0301Z" fill="#A8CEC2"/>
<path d="M47.9318 51.3182L41.8893 45.2759L39.5657 39.2009C39.2068 38.263 38.2301 37.7129 37.2413 37.8936C33.1177 38.6466 29.8413 41.923 29.089 46.0433L29.0843 46.069C28.9088 47.0296 29.4364 47.9983 30.3387 48.3721L36.3011 50.8421L41.1386 55.6795C41.3522 55.893 41.6321 55.9999 41.912 55.9999C42.1918 55.9999 42.4717 55.893 42.6853 55.6795C43.1125 55.2524 43.1125 54.5598 42.6853 54.1326L38.4676 49.9149L40.9512 47.4313L46.3849 52.8651C46.8122 53.2921 47.5045 53.2921 47.9318 52.8651C48.3589 52.438 48.3589 51.7454 47.9318 51.3182ZM36.6642 48.6246L31.2509 46.3821C31.8561 43.2025 34.3762 40.6756 37.5525 40.0607L39.6761 45.6127L36.6642 48.6246Z" fill="#A8CEC2"/>
</svg>
