<svg width="56" height="56" viewBox="0 0 56 56" fill="none" xmlns="http://www.w3.org/2000/svg">
<path d="M54.2429 26.4802H48.8456C48.8213 23.226 46.1732 20.4941 42.8027 20.4941H34.8555C31.4828 20.4941 28.8369 23.2283 28.8125 26.4802H27.1843C27.16 23.226 24.5119 20.4941 21.1414 20.4941H13.1942C9.82143 20.4941 7.17565 23.2283 7.15136 26.4802H1.75381C0.810454 26.4802 0.0429688 27.2477 0.0429688 28.1911V30.2305C0.0429688 31.1739 0.810454 31.9413 1.75381 31.9413H2.07439V54.4799C2.07439 55.318 2.75624 55.9998 3.59427 55.9998H5.56553C6.40357 55.9998 7.08541 55.318 7.08541 54.4799V31.9413H8.21974L9.22501 36.3966C9.64468 38.2561 11.269 39.5548 13.1753 39.5548H13.9796L14.1505 41.2437H12.0979C10.3519 41.2437 8.93144 42.6641 8.93144 44.4101C8.93144 45.4551 9.78151 46.3052 10.8265 46.3052H16.3311V52.1777H14.7421C12.9731 52.1777 11.3852 53.2308 10.697 54.8604C10.5208 55.2778 10.7162 55.759 11.1335 55.9352C11.5508 56.1114 12.032 55.916 12.2082 55.4986C12.6394 54.4777 13.6339 53.8181 14.7421 53.8181H19.5931C20.7013 53.8181 21.6958 54.4777 22.127 55.4986C22.3035 55.9167 22.785 56.111 23.2017 55.9352C23.619 55.759 23.8144 55.2778 23.6382 54.8604C22.95 53.2308 21.3621 52.1777 19.5931 52.1777H17.9716V46.3052H23.408C24.453 46.3052 25.3031 45.4551 25.3031 44.4101C25.3031 42.6641 23.8827 41.2437 22.1366 41.2437H20.1847L20.3556 39.5548H21.1599C22.7884 39.5548 24.2515 38.5869 24.8873 37.0887C25.0643 36.6718 24.8697 36.1902 24.4526 36.0133C24.036 35.8367 23.5542 36.0309 23.3772 36.4479C22.9992 37.3388 22.1289 37.9143 21.1599 37.9143C17.8023 37.9143 27.1789 37.9143 13.1755 37.9143C12.0415 37.9143 11.0752 37.1417 10.8256 36.0356L8.90071 27.5049C8.27869 24.7494 10.3753 22.1347 13.1942 22.1347H21.1414C23.9609 22.1347 26.0566 24.7497 25.4349 27.505L24.227 32.8584C24.1274 33.3003 24.4047 33.7394 24.8467 33.8391C25.2887 33.9385 25.7277 33.6614 25.8274 33.2194L26.1158 31.9412H29.8814L30.8867 36.3965C31.3064 38.256 32.9307 39.5547 34.837 39.5547H35.6916L35.8624 41.2436H33.8098C32.0638 41.2436 30.6434 42.664 30.6434 44.41C30.6434 45.455 31.4934 46.3051 32.5384 46.3051H38.0682V52.1776H36.454C34.685 52.1776 33.0971 53.2306 32.4089 54.8603C32.2327 55.2777 32.4282 55.7589 32.8454 55.9351C33.2626 56.1113 33.7439 55.9159 33.9201 55.4985C34.3513 54.4776 35.3458 53.818 36.454 53.818H41.3051C42.4133 53.818 43.4079 54.4776 43.8389 55.4984C44.0159 55.9178 44.4984 56.1105 44.9135 55.9351C45.3309 55.7589 45.5264 55.2777 45.3502 54.8604C44.6621 53.2306 43.0743 52.1776 41.3051 52.1776H39.7087V46.3051H45.1199C46.1649 46.3051 47.0151 45.455 47.0151 44.41C47.0151 42.664 45.5946 41.2436 43.8487 41.2436H41.8967L42.0675 39.5547H42.8214C44.7277 39.5547 46.352 38.256 46.7717 36.3965L47.7771 31.9412H48.9114V54.4798C48.9114 55.3179 49.5933 55.9997 50.4313 55.9997H52.4026C53.2406 55.9997 53.9224 55.3179 53.9224 54.4798V50.8026C53.9224 50.3496 53.5553 49.9824 53.1022 49.9824C52.6492 49.9824 52.282 50.3496 52.282 50.8026V54.3593H50.5519V31.9413H52.282V46.983C52.282 47.4361 52.6492 47.8032 53.1022 47.8032C53.5553 47.8032 53.9224 47.4361 53.9224 46.983V31.9413H54.243C55.1864 31.9413 55.9539 31.1739 55.9539 30.2305V28.1911C55.9538 27.2477 55.1863 26.4802 54.2429 26.4802ZM5.44511 54.3593H3.71502V31.9413H5.44511V54.3593ZM1.75381 30.3008C1.71509 30.3008 1.68338 30.2692 1.68338 30.2305V28.1911C1.68338 28.1524 1.71499 28.1208 1.75381 28.1208H7.35776L7.84972 30.3009H1.75381V30.3008ZM18.7067 39.5548L18.5359 41.2437H15.7994L15.6286 39.5548H18.7067ZM22.1367 42.8842C22.9782 42.8842 23.6627 43.5687 23.6627 44.4101C23.6627 44.5505 23.5485 44.6647 23.4081 44.6647H10.8266C10.6863 44.6647 10.5721 44.5505 10.5721 44.4101C10.5721 43.5687 11.2565 42.8842 12.098 42.8842H22.1367ZM26.4857 30.3008L26.9777 28.1206H29.0189L29.5109 30.3008H26.4857ZM43.8484 42.8842C44.6899 42.8842 45.3743 43.5687 45.3743 44.4101C45.3743 44.5505 45.2602 44.6647 45.1197 44.6647H32.5383C32.398 44.6647 32.2838 44.5505 32.2838 44.4101C32.2838 43.5687 32.9683 42.8842 33.8097 42.8842H43.8484ZM37.3403 39.5548H40.4183L40.2475 41.2437H37.5112L37.3403 39.5548ZM47.096 27.505L45.1711 36.0356C44.9215 37.1417 43.9552 37.9143 42.8211 37.9143C41.142 37.9143 36.4593 37.9143 34.8367 37.9143C33.7027 37.9143 32.7364 37.1417 32.4867 36.0355L30.5617 27.505C29.9399 24.7493 32.0364 22.1347 34.8552 22.1347H42.8024C45.6221 22.1347 47.7178 24.7496 47.096 27.505ZM54.3132 30.2305C54.3132 30.2692 54.2816 30.3008 54.2429 30.3008H48.147L48.639 28.1206H54.2429C54.2816 28.1206 54.3132 28.1523 54.3132 28.191V30.2305Z" fill="#A8CEC2"/>
<path d="M2.35911 4.71822H7.85597V6.39057C6.75107 6.73958 5.94771 7.77405 5.94771 8.99282V10.1064C4.22385 11.0425 3.06469 12.832 2.94569 14.8059C2.90708 15.4409 3.41556 15.9765 4.05049 15.9765H13.302C13.938 15.9765 14.4449 15.4398 14.4069 14.8063C14.2879 12.832 13.1286 11.0425 11.4048 10.1064V8.99293C11.4048 7.77416 10.6014 6.73969 9.49649 6.39068V4.71833H27.1773V6.39068C26.0724 6.73969 25.269 7.77416 25.269 8.99293V10.1065C23.5452 11.0426 22.3859 12.8322 22.2669 14.8065C22.2287 15.4415 22.7371 15.9766 23.3718 15.9766H32.6233C33.2593 15.9766 33.7663 15.4399 33.7282 14.8064C33.6092 12.8321 32.4499 11.0426 30.7261 10.1065V8.99293C30.7261 7.77416 29.9227 6.73969 28.8178 6.39068V4.71833H46.4986V6.39068C45.3937 6.73969 44.5904 7.77416 44.5904 8.99304V10.1066C42.8665 11.0427 41.7072 12.8322 41.5882 14.8061C41.5494 15.4438 42.0605 15.9767 42.6931 15.9767H51.9446C52.5806 15.9767 53.0875 15.44 53.0494 14.8065C52.9304 12.8322 51.7713 11.0427 50.0474 10.1066V8.99293C50.0474 7.77416 49.244 6.73969 48.1391 6.39068V4.71833H53.636C54.9369 4.71833 55.9951 3.66002 55.9951 2.35922C55.9952 1.05831 54.937 0 53.6361 0H2.35911C1.0582 0 0 1.05831 0 2.35911C0 3.65991 1.0582 4.71822 2.35911 4.71822ZM10.268 11.3772C11.5165 11.9037 12.4244 13.03 12.6939 14.3361H4.65883C4.92833 13.0299 5.83603 11.9037 7.08455 11.3772C7.0863 11.3764 7.08794 11.3758 7.08969 11.3751C8.10294 10.9492 9.24865 10.9484 10.2635 11.3753C10.265 11.3759 10.2665 11.3765 10.268 11.3772ZM9.76424 8.99293V9.51946C9.06151 9.38405 8.32825 9.37683 7.58822 9.51946V8.99293C7.58822 8.39301 8.07636 7.90497 8.67618 7.90497C9.27599 7.90497 9.76424 8.39301 9.76424 8.99293ZM29.5893 11.3772C30.8379 11.9037 31.7457 13.03 32.0152 14.3361H23.9799C24.2495 13.0297 25.1575 11.9035 26.4063 11.377C26.4076 11.3764 26.409 11.3759 26.4104 11.3752C27.4235 10.949 28.5697 10.9483 29.5848 11.3752L29.5893 11.3772ZM29.0856 8.99293V9.51946C28.3858 9.3846 27.6524 9.37629 26.9095 9.51946V8.99293C26.9095 8.39301 27.3977 7.90497 27.9975 7.90497C28.5973 7.90497 29.0856 8.39301 29.0856 8.99293ZM48.9107 11.3772C50.1592 11.9037 51.067 13.03 51.3364 14.3361H43.3014C43.571 13.0297 44.4789 11.9035 45.7277 11.377C45.7291 11.3764 45.7305 11.3759 45.7319 11.3752C46.745 10.9491 47.8907 10.9484 48.9058 11.375C48.9074 11.3758 48.909 11.3764 48.9107 11.3772ZM48.407 8.99293V9.51946C47.7057 9.38427 46.9724 9.37662 46.231 9.51946V8.99293C46.231 8.39301 46.719 7.90497 47.3188 7.90497C47.9189 7.90486 48.407 8.39301 48.407 8.99293ZM2.35911 1.64052H53.6361C54.0324 1.64052 54.3548 1.96295 54.3548 2.35922C54.3548 2.75549 54.0324 3.07781 53.6361 3.07781H2.35911C1.96284 3.07781 1.64041 2.75538 1.64041 2.35911C1.64041 1.96284 1.96284 1.64052 2.35911 1.64052Z" fill="#A8CEC2"/>
</svg>
