<svg width="56" height="56" viewBox="0 0 56 56" fill="none" xmlns="http://www.w3.org/2000/svg">
<path d="M54.949 24.7546L43.9062 14.5612C44.3653 13.8887 44.6579 13.1167 44.7597 12.3089C44.8616 11.501 44.7697 10.6806 44.4918 9.91523C44.2139 9.14989 43.7579 8.46165 43.1615 7.90737C42.565 7.35308 41.8453 6.94865 41.0617 6.72748C41.065 6.66299 41.0667 6.59827 41.0667 6.53334V5.13334C41.0668 4.18998 40.8069 3.26483 40.3156 2.45952C39.8243 1.6542 39.1205 0.999867 38.2816 0.56838C37.4427 0.136894 36.5011 -0.0550537 35.5603 0.0136204C34.6194 0.0822945 33.7157 0.408933 32.9483 0.957662C32.7013 0.976328 32.3735 1.0091 32.0808 1.05763C30.8326 0.364052 29.4283 5.22608e-05 28.0003 3.26923e-06C26.5723 -4.57223e-05 25.1679 0.363858 23.9197 1.05735C23.6259 1.00835 23.2974 0.975208 23.0498 0.956355C22.2014 0.350303 21.1887 0.0169434 20.1462 0.000631232C19.1038 -0.015681 18.0811 0.285828 17.2142 0.86504L18.2525 2.41622C18.8322 2.02931 19.5205 1.83797 20.2167 1.87015C20.9129 1.90234 21.5806 2.15636 22.1221 2.5951C22.286 2.72805 22.4901 2.80151 22.7011 2.80348C23.0737 2.82168 23.4445 2.86695 23.8106 2.93894C23.9371 2.97704 24.0703 2.98785 24.2013 2.97065C24.3324 2.95346 24.4582 2.90865 24.5707 2.83919C25.6015 2.20338 26.7888 1.86667 28 1.86667C29.2112 1.86667 30.3985 2.20338 31.4294 2.83919C31.5418 2.90865 31.6677 2.95346 31.7987 2.97066C31.9297 2.98785 32.0629 2.97704 32.1894 2.93894C32.5547 2.86751 32.9248 2.82273 33.2966 2.80496C33.5079 2.80303 33.7123 2.72944 33.8764 2.59623C34.4566 2.12166 35.1838 1.86373 35.9334 1.86667C36.7994 1.86764 37.6298 2.21212 38.2422 2.82453C38.8546 3.43693 39.1991 4.26726 39.2 5.13334V6.53334C39.2003 6.74792 39.1633 6.96092 39.0908 7.16287C39.042 7.2985 39.0253 7.44359 39.042 7.58675C39.0587 7.72992 39.1083 7.86728 39.1869 7.98806C39.2656 8.10884 39.3712 8.20976 39.4954 8.28291C39.6195 8.35606 39.759 8.39945 39.9028 8.40969C40.7252 8.4713 41.4941 8.84091 42.0559 9.44468C42.6177 10.0485 42.931 10.842 42.9334 11.6667C42.9354 12.2096 42.8006 12.7444 42.5414 13.2215L36.1267 6.80672C36.0142 6.6942 35.8748 6.61231 35.7218 6.56881C35.5687 6.52532 35.4071 6.52168 35.2522 6.55823C35.0974 6.59478 34.9545 6.67031 34.837 6.77764C34.7196 6.88498 34.6315 7.02056 34.5812 7.1715L34.1886 8.34973C33.7702 9.60637 33.8102 10.9705 34.3016 12.2005L34.6884 13.1674C34.5531 13.0455 34.4279 12.9127 34.3142 12.7704C34.2293 12.6642 34.1222 12.5778 34.0005 12.5173C33.8787 12.4569 33.7452 12.4237 33.6092 12.4202C33.4733 12.4167 33.3382 12.4429 33.2135 12.4971C33.0888 12.5512 32.9774 12.632 32.8871 12.7337C32.2741 13.4246 31.5216 13.9779 30.6792 14.3571C29.8369 14.7362 28.9238 14.9326 28 14.9333C27.0732 14.9352 26.1567 14.738 25.3126 14.3551C25.0901 14.2544 24.837 14.2448 24.6076 14.3286C24.3782 14.4124 24.1908 14.5827 24.0855 14.8031C23.9311 15.1272 23.6864 15.3998 23.3809 15.5884C23.0755 15.777 22.7221 15.8734 22.3632 15.8663C22.0042 15.8592 21.655 15.7487 21.3572 15.5481C21.0595 15.3476 20.8259 15.0654 20.6844 14.7355L21.6984 12.2005C22.1898 10.9706 22.2299 9.60646 21.8116 8.34982L21.4189 7.1715C21.3686 7.02056 21.2805 6.88498 21.1631 6.77765C21.0456 6.67031 20.9027 6.59478 20.7478 6.55823C20.593 6.52168 20.4314 6.52532 20.2783 6.56881C20.1253 6.61229 19.9859 6.69418 19.8734 6.8067L13.459 13.2211C13.1903 12.7234 13.0554 12.1644 13.0675 11.5989C13.0795 11.0333 13.2382 10.4806 13.5278 9.99477C13.8175 9.50891 14.2283 9.10654 14.7201 8.82701C15.2118 8.54748 15.7677 8.40034 16.3334 8.4C16.3716 8.4 16.4097 8.40166 16.4555 8.40336C16.6804 8.41305 16.901 8.33987 17.0755 8.19771L17.1249 8.15977C17.3084 8.01558 17.4312 7.80787 17.4692 7.57757C17.5071 7.34728 17.4574 7.11113 17.3298 6.91569C16.9807 6.38007 16.7966 5.75378 16.8001 5.11446C16.8036 4.47515 16.9947 3.85093 17.3496 3.31919L15.7984 2.28086C15.3726 2.91856 15.0949 3.64345 14.9858 4.4024C14.8766 5.16134 14.9386 5.93511 15.1673 6.66697C14.3549 6.85688 13.6009 7.24184 12.9707 7.78854C12.3405 8.33525 11.8529 9.02725 11.5501 9.8047C11.2474 10.5822 11.1386 11.4216 11.2331 12.2506C11.3277 13.0795 11.6227 13.873 12.0927 14.5623L1.05094 24.7546C0.720014 25.0608 0.455868 25.4321 0.275037 25.8451C0.0942065 26.2582 0.000583784 26.7041 3.00947e-05 27.155V28.2705C-0.00280631 28.9294 0.194916 29.5735 0.566924 30.1174C0.938931 30.6612 1.46761 31.0789 2.08272 31.3151L15.9075 36.6913C16.1711 36.7926 16.3977 36.9716 16.5571 37.2047C16.7165 37.4377 16.8013 37.7138 16.8 37.9961V39.1075L16.6058 40.0788C16.3595 41.3307 16.4703 42.6267 16.9257 43.8187C17.3811 45.0106 18.1627 46.0504 19.1811 46.8191L19.6 47.1333V51.7672L18.7688 52.3214C18.1626 52.7245 17.6656 53.2714 17.3221 53.9133C16.9786 54.5551 16.7993 55.272 16.8 56H18.6667C18.6662 55.5794 18.7699 55.1652 18.9683 54.7943C19.1668 54.4234 19.454 54.1074 19.8042 53.8745L21.0511 53.0432C21.1789 52.958 21.2838 52.8425 21.3563 52.7071C21.4288 52.5716 21.4667 52.4203 21.4667 52.2667V46.6667C21.4667 46.5218 21.433 46.3789 21.3682 46.2493C21.3034 46.1197 21.2093 46.0069 21.0934 45.92L20.3011 45.3258C19.5636 44.7691 18.9977 44.0162 18.6679 43.153C18.3381 42.2899 18.2578 41.3514 18.4362 40.4448L18.5676 39.7879L19.5852 39.1773C20.4594 38.6497 21.4532 38.3525 22.4735 38.3133C23.4939 38.2741 24.5075 38.4943 25.4196 38.9533L27.5826 40.0348C27.7122 40.0996 27.8551 40.1334 28 40.1334C28.1449 40.1334 28.2878 40.0996 28.4175 40.0348L30.5805 38.9533C31.4926 38.4943 32.5062 38.2741 33.5265 38.3133C34.5469 38.3524 35.5406 38.6497 36.4148 39.1773L37.4325 39.7879L37.5638 40.4448C37.7422 41.3514 37.6619 42.2899 37.3321 43.153C37.0024 44.0162 36.4364 44.7691 35.699 45.3258L34.9067 45.92C34.7908 46.0069 34.6967 46.1197 34.6319 46.2493C34.5671 46.3789 34.5334 46.5218 34.5334 46.6667V52.2667C34.5334 52.4203 34.5713 52.5716 34.6438 52.7071C34.7163 52.8425 34.8211 52.958 34.949 53.0432L36.1959 53.8745C36.5461 54.1074 36.8332 54.4234 37.0317 54.7943C37.2302 55.1652 37.3338 55.5794 37.3334 56H39.2C39.2008 55.272 39.0214 54.5551 38.6779 53.9133C38.3344 53.2714 37.8374 52.7245 37.2313 52.3214L36.4 51.7672V47.1333L36.819 46.8191C37.8373 46.0504 38.6189 45.0106 39.0743 43.8187C39.5297 42.6267 39.6406 41.3307 39.3943 40.0788L39.2 39.1075V37.9961C39.1988 37.7138 39.2835 37.4377 39.4429 37.2047C39.6024 36.9716 39.8289 36.7926 40.0925 36.6913L44.2049 35.0921L43.5284 33.3524L39.416 34.9516C38.869 35.1614 38.3891 35.5155 38.0273 35.9762C37.6654 36.4369 37.4351 36.987 37.3608 37.5681C36.2185 36.882 34.9213 36.4961 33.5897 36.4464C32.2582 36.3967 30.9358 36.6847 29.7455 37.2837L28 38.1565L26.2545 37.2837C25.0642 36.6848 23.7418 36.3968 22.4103 36.4465C21.0788 36.4962 19.7815 36.8821 18.6392 37.5681C18.5649 36.987 18.3346 36.4369 17.9727 35.9762C17.6109 35.5155 17.131 35.1614 16.584 34.9516L2.7592 29.5753C2.4956 29.4741 2.26903 29.2951 2.10962 29.062C1.9502 28.8289 1.86547 28.5529 1.8667 28.2705V27.155C1.86694 26.9617 1.90705 26.7706 1.98454 26.5936C2.06203 26.4166 2.17522 26.2575 2.31703 26.1262L13.6997 15.6191C13.7089 15.6107 13.7178 15.6021 13.7267 15.5933L20.1175 9.20243C20.3113 9.96749 20.258 10.7743 19.9653 11.5072L18.7334 14.5867C18.6893 14.6969 18.6667 14.8146 18.6667 14.9333V16.9682L14.7503 17.7515C14.5513 17.7913 14.3706 17.8949 14.2358 18.0466L6.76911 26.4466C6.66651 26.5621 6.59415 26.7012 6.55854 26.8514C6.52292 27.0017 6.52515 27.1585 6.56504 27.3077C6.60492 27.4569 6.6812 27.5939 6.78706 27.7063C6.89291 27.8188 7.02501 27.9033 7.17153 27.9521L15.5715 30.7521C15.7399 30.8082 15.9209 30.8152 16.0931 30.7721L16.4903 30.6729C17.2635 30.4767 18.0793 30.5345 18.8171 30.8379C19.5548 31.1412 20.1754 31.674 20.5869 32.3573L20.669 32.4924C20.7808 32.6765 20.953 32.8163 21.1562 32.888L23.0228 33.5468C23.1226 33.582 23.2276 33.6 23.3334 33.6H24.2667C24.4825 33.6 24.6916 33.5252 24.8584 33.3885C25.0253 33.2517 25.1396 33.0613 25.1819 32.8497L25.8434 29.5425C27.2489 29.9735 28.7512 29.9748 30.1574 29.546L30.8181 32.8497C30.8605 33.0613 30.9748 33.2517 31.1416 33.3885C31.3085 33.5252 31.5176 33.6 31.7334 33.6H32.6667C32.8116 33.6 32.9545 33.5663 33.0841 33.5015L34.9508 32.5681C35.0962 32.4954 35.22 32.386 35.3101 32.2508L35.3523 32.1874C35.7803 31.5477 36.3952 31.0555 37.1132 30.778C37.8311 30.5005 38.6171 30.451 39.3642 30.6365L39.907 30.7722C40.0792 30.8152 40.2601 30.8083 40.4286 30.7521L48.8286 27.9521C48.9751 27.9033 49.1072 27.8188 49.213 27.7064C49.3189 27.5939 49.3952 27.4569 49.4351 27.3077C49.4749 27.1585 49.4772 27.0017 49.4415 26.8514C49.4059 26.7012 49.3336 26.5621 49.231 26.4466L41.7643 18.0466C41.6294 17.8949 41.4488 17.7913 41.2498 17.7515L37.3334 16.9682V14.9333C37.3334 14.8146 37.3107 14.6969 37.2666 14.5867L36.0348 11.5072C35.7419 10.7743 35.6887 9.96749 35.8826 9.20243L42.2734 15.5933C42.2822 15.6021 42.2911 15.6107 42.3003 15.6191L53.6829 26.1262C53.8247 26.2575 53.938 26.4166 54.0155 26.5936C54.093 26.7706 54.1331 26.9617 54.1334 27.155V28.2705C54.1346 28.5529 54.0499 28.8289 53.8904 29.062C53.731 29.2951 53.5045 29.4741 53.2409 29.5753L45.3951 32.6265L46.0717 34.3662L53.9174 31.3151C54.5325 31.0789 55.0612 30.6612 55.4332 30.1174C55.8051 29.5735 56.0029 28.9294 56 28.2705V27.155C55.9995 26.7041 55.9058 26.2581 55.725 25.8451C55.5441 25.4321 55.28 25.0608 54.949 24.7546ZM22.7056 2.8035C22.7186 2.80333 22.7317 2.80333 22.7448 2.80287C22.7374 2.80319 22.724 2.80382 22.7056 2.8035ZM33.254 2.80436C33.2668 2.80475 33.2797 2.80487 33.2924 2.80499C33.2736 2.80559 33.2612 2.80473 33.254 2.80439V2.80436ZM23.1154 25.482L21.6847 26.6809C22.3657 27.5054 23.1807 28.2095 24.0955 28.7634L23.5015 31.7333L22.0874 31.2372C21.4542 30.2581 20.5299 29.5022 19.4446 29.0761C18.3593 28.65 17.1676 28.5751 16.0374 28.8619L15.9039 28.8953L9.1047 26.6288L15.4232 19.5205L18.7064 18.8639C18.836 20.9073 19.3979 22.8999 20.3551 24.7099L21.998 23.8235C21.0398 22.0477 20.5334 19.9417 20.5334 17.7333V17.2343C21.3023 17.6776 22.204 17.8325 23.0768 17.6712C23.9496 17.5099 24.7364 17.0429 25.2961 16.3541C26.7018 16.8313 28.2089 16.9275 29.664 16.6329C31.119 16.3384 32.47 15.6635 33.5794 14.677C34.1306 15.1395 34.774 15.4794 35.4667 15.674V17.7333C35.4667 23.3944 32.1172 28 28 28C26.2107 28 24.4761 27.1058 23.1154 25.482ZM40.5769 19.5205L46.8954 26.6288L40.0961 28.8953L39.817 28.8255C38.7256 28.5545 37.5779 28.6175 36.5227 29.0064C35.4676 29.3954 34.5536 30.0923 33.8992 31.0069L32.4937 31.7096L31.9056 28.7687C32.9902 28.1061 33.9349 27.2379 34.6864 26.2129C36.1903 24.2078 37.0988 21.6316 37.2937 18.8639L40.5769 19.5205Z" fill="#A8CEC2"/>
<path d="M31.7334 20.9973C31.0882 20.9971 30.4577 20.8055 29.9214 20.4469L30.9568 18.8938C31.1866 19.0476 31.4569 19.1296 31.7334 19.1296C32.0099 19.1296 32.2801 19.0476 32.5099 18.8938L33.5453 20.4469C33.0091 20.8055 32.3785 20.9971 31.7334 20.9973Z" fill="#A8CEC2"/>
<path d="M24.6276 20.9973C23.9825 20.9971 23.3519 20.8055 22.8157 20.4469L23.8511 18.8938C24.0809 19.0476 24.3512 19.1297 24.6277 19.1297C24.9042 19.1297 25.1745 19.0476 25.4043 18.8938L26.4397 20.447C25.9034 20.8055 25.2728 20.997 24.6276 20.9973Z" fill="#A8CEC2"/>
<path d="M6.53337 10.2667C5.79499 10.2667 5.07318 10.0478 4.45924 9.63754C3.8453 9.22731 3.36679 8.64425 3.08422 7.96207C2.80165 7.27989 2.72772 6.52924 2.87177 5.80505C3.01582 5.08085 3.37139 4.41563 3.8935 3.89352C4.41562 3.3714 5.08084 3.01584 5.80503 2.87179C6.52923 2.72773 7.27988 2.80167 7.96205 3.08423C8.64423 3.3668 9.2273 3.84531 9.63752 4.45925C10.0477 5.0732 10.2667 5.795 10.2667 6.53338C10.2656 7.52318 9.87188 8.47212 9.17199 9.17201C8.4721 9.8719 7.52316 10.2656 6.53337 10.2667ZM6.53337 4.66672C6.16418 4.66672 5.80328 4.7762 5.4963 4.98131C5.18933 5.18642 4.95008 5.47795 4.80879 5.81904C4.66751 6.16013 4.63054 6.53545 4.70257 6.89755C4.77459 7.25965 4.95238 7.59226 5.21344 7.85332C5.47449 8.11437 5.8071 8.29216 6.1692 8.36418C6.5313 8.43621 6.90662 8.39924 7.24771 8.25796C7.5888 8.11668 7.88033 7.87742 8.08544 7.57045C8.29056 7.26348 8.40003 6.90258 8.40003 6.53338C8.39947 6.03849 8.20262 5.56402 7.85268 5.21408C7.50273 4.86413 7.02827 4.66728 6.53337 4.66672Z" fill="#A8CEC2"/>
<path d="M46.6667 52.2667C45.9283 52.2667 45.2065 52.0478 44.5926 51.6375C43.9786 51.2273 43.5001 50.6442 43.2175 49.9621C42.935 49.2799 42.861 48.5292 43.0051 47.805C43.1491 47.0809 43.5047 46.4156 44.0268 45.8935C44.5489 45.3714 45.2142 45.0158 45.9383 44.8718C46.6625 44.7277 47.4132 44.8017 48.0954 45.0842C48.7775 45.3668 49.3606 45.8453 49.7708 46.4593C50.1811 47.0732 50.4 47.795 50.4 48.5334C50.3989 49.5232 50.0052 50.4721 49.3053 51.172C48.6054 51.8719 47.6565 52.2656 46.6667 52.2667ZM46.6667 46.6667C46.2975 46.6667 45.9366 46.7762 45.6296 46.9813C45.3226 47.1864 45.0834 47.478 44.9421 47.819C44.8008 48.1601 44.7639 48.5355 44.8359 48.8976C44.9079 49.2597 45.0857 49.5923 45.3468 49.8533C45.6078 50.1144 45.9404 50.2922 46.3025 50.3642C46.6646 50.4362 47.0399 50.3992 47.381 50.258C47.7221 50.1167 48.0137 49.8774 48.2188 49.5704C48.4239 49.2635 48.5334 48.9026 48.5334 48.5334C48.5328 48.0385 48.3359 47.564 47.986 47.2141C47.636 46.8641 47.1616 46.6673 46.6667 46.6667Z" fill="#A8CEC2"/>
<path d="M28.9334 51.3333H27.0667V53.1999H28.9334V51.3333Z" fill="#A8CEC2"/>
<path d="M28.9334 13.0666V11.1999C29.4283 11.1994 29.9027 11.0025 30.2527 10.6526C30.6026 10.3026 30.7995 9.82815 30.8 9.33325H32.6667C32.6656 10.323 32.2719 11.272 31.572 11.9719C30.8721 12.6718 29.9232 13.0655 28.9334 13.0666Z" fill="#A8CEC2"/>
<path d="M6.06669 50.4C5.8992 50.4 5.7348 50.3549 5.59073 50.2695C5.44666 50.1841 5.32823 50.0615 5.24785 49.9145L4.22407 48.0426L2.35215 47.0189C2.20519 46.9385 2.08257 46.82 1.99714 46.676C1.91172 46.5319 1.86664 46.3675 1.86664 46.2C1.86664 46.0325 1.91172 45.8681 1.99714 45.724C2.08257 45.5799 2.20519 45.4615 2.35215 45.3811L4.22407 44.3573L5.24785 42.4854C5.32823 42.3385 5.44666 42.2159 5.59074 42.1305C5.73481 42.0451 5.89921 42 6.06669 42C6.23418 42 6.39858 42.0451 6.54265 42.1305C6.68672 42.2159 6.80515 42.3385 6.88553 42.4854L7.90931 44.3573L9.78123 45.3811C9.92819 45.4615 10.0508 45.5799 10.1362 45.724C10.2217 45.8681 10.2667 46.0325 10.2667 46.2C10.2667 46.3675 10.2217 46.5319 10.1362 46.676C10.0508 46.82 9.92819 46.9385 9.78123 47.0189L7.90931 48.0426L6.88553 49.9145C6.80516 50.0615 6.68672 50.1841 6.54265 50.2695C6.39858 50.3549 6.23418 50.4 6.06669 50.4ZM4.74508 46.2L5.35963 46.536C5.51623 46.6216 5.64498 46.7504 5.73063 46.907L6.06669 47.5215L6.4028 46.907C6.48844 46.7504 6.6172 46.6217 6.7738 46.536L7.3883 46.2L6.77375 45.864C6.61715 45.7783 6.4884 45.6496 6.40275 45.493L6.06669 44.8784L5.73059 45.493C5.64494 45.6496 5.51618 45.7783 5.35959 45.864L4.74508 46.2Z" fill="#A8CEC2"/>
<path d="M49.9334 14.0001C49.7659 14.0001 49.6015 13.955 49.4574 13.8696C49.3133 13.7842 49.1949 13.6615 49.1145 13.5146L48.0907 11.6427L46.2188 10.6189C46.0719 10.5386 45.9492 10.4201 45.8638 10.2761C45.7784 10.132 45.7333 9.96757 45.7333 9.80007C45.7333 9.63256 45.7784 9.46815 45.8638 9.32407C45.9492 9.17999 46.0719 9.06155 46.2188 8.98118L48.0907 7.95744L49.1145 6.08553C49.1949 5.93859 49.3133 5.81598 49.4574 5.73058C49.6015 5.64517 49.7659 5.6001 49.9334 5.6001C50.1008 5.6001 50.2652 5.64517 50.4093 5.73058C50.5534 5.81598 50.6718 5.93859 50.7522 6.08553L51.776 7.95744L53.6479 8.98118C53.7949 9.06155 53.9175 9.17999 54.0029 9.32407C54.0883 9.46815 54.1334 9.63256 54.1334 9.80007C54.1334 9.96757 54.0883 10.132 54.0029 10.2761C53.9175 10.4201 53.7949 10.5386 53.6479 10.6189L51.776 11.6427L50.7522 13.5146C50.6718 13.6615 50.5534 13.7842 50.4093 13.8696C50.2653 13.955 50.1008 14.0001 49.9334 14.0001ZM48.6117 9.80007L49.2263 10.1361C49.3829 10.2217 49.5117 10.3505 49.5973 10.5071L49.9334 11.1216L50.2695 10.5071C50.3551 10.3505 50.4839 10.2218 50.6405 10.1361L51.255 9.80012L50.6405 9.46412C50.4839 9.37848 50.3551 9.24972 50.2695 9.09312L49.9334 8.47851L49.5973 9.09307C49.5116 9.24966 49.3829 9.37842 49.2263 9.46407L48.6117 9.80007Z" fill="#A8CEC2"/>
</svg>
